<?xml version="1.0" encoding="UTF-8"?>
<svg width="800px" height="800px" viewBox="0 0 800 800" version="1.1" xmlns="http://www.w3.org/2000/svg" xmlns:xlink="http://www.w3.org/1999/xlink">
    <title>earth-svgrepo-com</title>
    <g id="Page-1" stroke="none" stroke-width="1" fill="none" fill-rule="evenodd">
        <g id="earth-svgrepo-com" fill="#FFFFFF" fill-rule="nonzero">
            <path d="M723.754687,165.1375 C718.99375,158.496875 714.014063,152.003125 708.740625,145.63125 C635.376562,56.7390625 524.267187,0 400,0 C275.75625,0 164.623437,56.7390625 91.259375,145.629688 C85.9859375,152.001563 81.0046875,158.495312 76.26875,165.135937 C28.246875,231.128125 0,312.25625 0,400 C0,487.989062 28.36875,569.50625 76.6109375,635.498438 C81.49375,642.260937 86.6203125,648.878125 91.9921875,655.273438 C165.38125,743.628125 276.123437,800 400,800 C524.5125,800 635.645312,743.115625 708.984375,654.003125 C714.379687,647.63125 719.50625,641.014063 724.267187,634.251562 C771.996875,568.384375 800,487.5 800,400 C800,312.25625 771.753125,231.128125 723.754687,165.1375 Z M737.0125,387.451563 L602.734375,387.451563 C601.757812,336.571875 594.873438,288.329687 583.203125,244.921875 C616.259375,233.642188 646.63125,219.360937 673.485937,202.635938 C711.45,254.93125 734.448438,318.653125 737.0125,387.451563 Z M412.475,65.478125 C470.873438,73.584375 522.534375,137.523438 552.001562,228.417187 C509.08125,240.648438 462.010937,247.801563 412.475,248.876562 L412.475,65.478125 L412.475,65.478125 Z M387.475,65.478125 L387.475,248.876562 C337.939062,247.801563 290.86875,240.648438 247.948438,228.417187 C277.417188,137.525 329.076563,73.584375 387.475,65.478125 Z M387.475,273.853125 L387.475,387.451563 L222.217188,387.451563 C223.19375,339.379687 229.859375,293.554688 240.942188,252.270312 C286.084375,265.234375 335.473438,272.803125 387.475,273.853125 Z M387.475,412.451562 L387.475,526.05 C335.546875,527.295313 286.18125,535.009375 241.064062,548.071875 C229.90625,506.690625 223.217187,460.69375 222.215625,412.451562 L387.475,412.451562 L387.475,412.451562 Z M387.475,551.025 L387.475,734.423437 C329.198438,726.342187 277.610937,662.645313 248.11875,572.020313 C291.601562,559.423437 338.646875,552.270312 387.475,551.025 Z M412.475,734.423437 L412.475,550.976562 C462.010937,551.85625 509.129687,558.935938 552.098438,571.09375 C522.65625,662.207812 470.946875,726.31875 412.475,734.423437 Z M412.475,525.976562 L412.475,412.451562 L577.734375,412.451562 C576.757812,460.303125 570.142187,505.98125 559.154687,547.120312 C513.965625,534.278125 464.501562,526.85625 412.475,525.976562 Z M412.475,387.451563 L412.475,273.853125 C464.476562,272.803125 513.867188,265.259375 559.032812,252.295313 C570.092187,293.554688 576.757812,339.404688 577.734375,387.451563 L412.475,387.451563 Z M658.251562,183.129688 C633.789062,198.046875 606.151562,210.790625 576.121875,221.045313 C555.467188,157.079688 524.14375,105.420313 486.425,73.828125 C554.540625,91.8703125 614.30625,130.639063 658.251562,183.129688 Z M313.525,73.828125 C275.804688,105.44375 244.48125,157.079688 223.828125,221.020313 C193.846875,210.765625 166.185938,198.046875 141.748437,183.129688 C185.69375,130.664063 245.410937,91.8953125 313.525,73.828125 Z M126.514062,202.6375 C153.370312,219.360938 183.715625,233.61875 216.748437,244.923437 C205.078125,288.33125 198.19375,336.573437 197.217187,387.453125 L62.9890625,387.453125 C65.5515625,318.653125 88.575,254.93125 126.514062,202.6375 Z M62.9890625,412.451562 L197.217188,412.451562 C198.19375,463.526562 205.128125,511.964062 216.895313,555.51875 C183.935938,566.846875 153.6625,581.079687 126.88125,597.754687 C88.671875,545.2875 65.528125,481.420312 62.9890625,412.451562 Z M142.382812,617.504687 C167.1875,602.34375 194.701563,589.696875 224.071875,579.540625 C244.726562,643.260937 276.025,694.701562 313.671875,726.171875 C245.85,708.203125 186.279687,669.678125 142.382812,617.504687 Z M486.279688,726.171875 C524.170313,694.53125 555.590625,642.675 576.245313,578.442187 C606.371875,588.671875 634.13125,601.440625 658.642188,616.38125 C614.551563,669.115625 554.590625,708.05625 486.279688,726.171875 Z M673.998437,596.753125 C647.020312,579.98125 616.528125,565.723438 583.348437,554.467188 C594.920312,511.18125 601.75625,463.134375 602.732812,412.45 L737.010937,412.45 C734.496875,481.029688 711.71875,544.434375 673.998437,596.753125 Z" id="Shape"></path>
        </g>
    </g>
</svg>