<svg width="94" height="94" viewBox="0 0 94 94" fill="none" xmlns="http://www.w3.org/2000/svg">
<rect x="25.2197" y="25.2195" width="43.561" height="43.561" rx="4.58537" fill="url(#paint0_linear_8_128)" stroke="white" stroke-width="1.5"/>
<path d="M37.2612 57H33.7896L41.5901 35.3237H45.3686L53.1691 57H49.6975L43.5693 39.261H43.4L37.2612 57ZM37.8433 48.5115H49.1048V51.2634H37.8433V48.5115ZM59.5699 35.3237V57H56.2994V35.3237H59.5699Z" fill="white"/>
<line x1="47.1768" y1="7.05493" x2="47.1768" y2="24.4696" stroke="white" stroke-width="1.5" stroke-linecap="square"/>
<line x1="58.6401" y1="16.7988" x2="58.6401" y2="23.8964" stroke="white" stroke-width="1.5" stroke-linecap="square"/>
<line x1="35.7134" y1="16.7988" x2="35.7134" y2="23.8964" stroke="white" stroke-width="1.5" stroke-linecap="square"/>
<circle cx="47.0001" cy="3.43902" r="2.68902" stroke="white" stroke-width="1.5"/>
<circle cx="58.4634" cy="13.1829" r="2.68902" stroke="white" stroke-width="1.5"/>
<circle cx="35.5367" cy="13.1829" r="2.68902" stroke="white" stroke-width="1.5"/>
<line x1="0.75" y1="-0.75" x2="18.1646" y2="-0.75" transform="matrix(0 -1 -1 0 46.4268 87.6951)" stroke="white" stroke-width="1.5" stroke-linecap="square"/>
<line x1="0.75" y1="-0.75" x2="7.84756" y2="-0.75" transform="matrix(4.37114e-08 -1 -1 -4.37114e-08 57.8901 77.9512)" stroke="white" stroke-width="1.5" stroke-linecap="square"/>
<line x1="0.75" y1="-0.75" x2="7.84756" y2="-0.75" transform="matrix(4.37114e-08 -1 -1 -4.37114e-08 34.9634 77.9512)" stroke="white" stroke-width="1.5" stroke-linecap="square"/>
<circle cx="3.43902" cy="3.43902" r="2.68902" transform="matrix(1 0 0 -1 43.561 94)" stroke="white" stroke-width="1.5"/>
<circle cx="3.43902" cy="3.43902" r="2.68902" transform="matrix(1 0 0 -1 55.0244 84.2561)" stroke="white" stroke-width="1.5"/>
<circle cx="3.43902" cy="3.43902" r="2.68902" transform="matrix(1 0 0 -1 32.0977 84.2561)" stroke="white" stroke-width="1.5"/>
<line x1="0.75" y1="-0.75" x2="18.1646" y2="-0.75" transform="matrix(1 4.37114e-08 4.37114e-08 -1 6.30469 46.4268)" stroke="white" stroke-width="1.5" stroke-linecap="square"/>
<line x1="86.9453" y1="47.1768" x2="69.5307" y2="47.1768" stroke="white" stroke-width="1.5" stroke-linecap="square"/>
<line x1="0.75" y1="-0.75" x2="7.84756" y2="-0.75" transform="matrix(1 8.74228e-08 8.74228e-08 -1 16.0488 57.8903)" stroke="white" stroke-width="1.5" stroke-linecap="square"/>
<line x1="77.2012" y1="58.6403" x2="70.1036" y2="58.6403" stroke="white" stroke-width="1.5" stroke-linecap="square"/>
<line x1="0.75" y1="-0.75" x2="7.84756" y2="-0.75" transform="matrix(1 8.74228e-08 8.74228e-08 -1 16.0488 34.9634)" stroke="white" stroke-width="1.5" stroke-linecap="square"/>
<line x1="77.2012" y1="35.7134" x2="70.1036" y2="35.7134" stroke="white" stroke-width="1.5" stroke-linecap="square"/>
<circle cx="3.43902" cy="3.43902" r="2.68902" transform="matrix(-4.37114e-08 1 1 4.37114e-08 0 43.561)" stroke="white" stroke-width="1.5"/>
<circle cx="90.561" cy="47.0001" r="2.68902" transform="rotate(90 90.561 47.0001)" stroke="white" stroke-width="1.5"/>
<circle cx="3.43902" cy="3.43902" r="2.68902" transform="matrix(-4.37114e-08 1 1 4.37114e-08 9.74414 55.0244)" stroke="white" stroke-width="1.5"/>
<circle cx="80.8168" cy="58.4634" r="2.68902" transform="rotate(90 80.8168 58.4634)" stroke="white" stroke-width="1.5"/>
<circle cx="3.43902" cy="3.43902" r="2.68902" transform="matrix(-4.37114e-08 1 1 4.37114e-08 9.74414 32.0975)" stroke="white" stroke-width="1.5"/>
<circle cx="80.8168" cy="35.5366" r="2.68902" transform="rotate(90 80.8168 35.5366)" stroke="white" stroke-width="1.5"/>
<defs>
<linearGradient id="paint0_linear_8_128" x1="47.0002" y1="25.2195" x2="47.0002" y2="68.7805" gradientUnits="userSpaceOnUse">
<stop stop-color="#C8C8C8" stop-opacity="0.37"/>
<stop offset="1" stop-color="#929191" stop-opacity="0.27"/>
</linearGradient>
</defs>
</svg>
