<?xml version="1.0" encoding="utf-8"?>
<!-- Generator: Adobe Illustrator 27.0.1, SVG Export Plug-In . SVG Version: 6.00 Build 0)  -->
<svg version="1.1" id="Layer_1" xmlns="http://www.w3.org/2000/svg" xmlns:xlink="http://www.w3.org/1999/xlink" x="0px" y="0px"
	 viewBox="0 0 67.7 67.7" style="enable-background:new 0 0 67.7 67.7;" xml:space="preserve">
<style type="text/css">
	.st0{fill:url(#SVGID_1_);}
	.st1{fill:#FFFFFF;}
</style>
<g>
	
		<linearGradient id="SVGID_1_" gradientUnits="userSpaceOnUse" x1="2720.4255" y1="33.8511" x2="2782.5107" y2="33.8511" gradientTransform="matrix(1 0 0 1 -2717.6169 0)">
		<stop  offset="0" style="stop-color:#47B8FF"/>
		<stop  offset="1" style="stop-color:#3F5DFF"/>
	</linearGradient>
	<circle class="st0" cx="33.85" cy="33.85" r="31.04"/>
	<g>
		<path class="st1" d="M26.4,43.04c-1.4-3.74-2.8-7.47-4.17-11.12c1.14-0.73,2.29-1.37,3.34-2.15c2.45-1.81,4.19-4.19,5.32-7.01
			c0.38-0.95,0.75-1.91,1.16-2.85c0.48-1.09,1.34-1.61,2.46-1.57c1.15,0.04,2,0.67,2.42,1.77c2.76,7.35,5.52,14.71,8.27,22.06
			c0.41,1.1,0.18,2.15-0.65,2.93c-0.82,0.77-1.85,0.94-2.92,0.43c-0.84-0.4-1.66-0.85-2.49-1.27c-3.87-2-7.91-2.49-12.14-1.36
			C26.81,42.95,26.61,42.99,26.4,43.04z"/>
		<path class="st1" d="M20.58,32.46c1.4,3.74,2.79,7.43,4.17,11.11c-0.02,0.03-0.03,0.07-0.05,0.08c-1.04,0.37-2.06,0.86-3.13,1.07
			c-1.91,0.38-3.77-0.66-4.56-2.46c-0.51-1.17-0.98-2.37-1.37-3.59c-0.69-2.19,0.26-4.29,2.35-5.24
			C18.82,33.07,19.69,32.79,20.58,32.46z"/>
		<path class="st1" d="M21.31,46.51c1.73-0.2,3.21-1.06,4.83-1.54c0.03,0.04,0.06,0.08,0.08,0.13c0.49,1.3,0.99,2.59,1.45,3.9
			c0.32,0.91,0.2,1.77-0.47,2.49c-0.7,0.75-1.57,1.03-2.58,0.81c-0.8-0.17-1.37-0.67-1.67-1.42C22.39,49.45,21.87,48,21.31,46.51z"
			/>
		<path class="st1" d="M47.96,27.64c0.77-0.29,1.54-0.59,2.32-0.87c0.61-0.22,1.09,0.05,1.2,0.65c0.08,0.44-0.12,0.77-0.64,0.97
			c-1.09,0.42-2.19,0.83-3.29,1.24c-0.44,0.16-0.87,0.34-1.31,0.49c-0.56,0.19-0.99,0-1.16-0.5c-0.17-0.48,0.02-0.89,0.56-1.1
			C46.41,28.22,47.19,27.93,47.96,27.64z"/>
		<path class="st1" d="M47.29,35.21c0.12,0.02,0.37,0.01,0.57,0.1c1.07,0.47,2.14,0.95,3.2,1.45c0.51,0.24,0.67,0.68,0.46,1.14
			c-0.21,0.45-0.64,0.62-1.14,0.4c-1.1-0.48-2.18-0.98-3.27-1.49c-0.35-0.16-0.51-0.46-0.49-0.84
			C46.65,35.62,46.84,35.39,47.29,35.21z"/>
		<path class="st1" d="M43.07,24.01c-0.46,0.17-0.75,0.09-1-0.17c-0.25-0.26-0.33-0.57-0.18-0.92c0.4-0.89,0.8-1.77,1.2-2.65
			c0.1-0.23,0.2-0.46,0.32-0.69c0.23-0.43,0.66-0.58,1.08-0.4c0.43,0.18,0.65,0.64,0.45,1.09c-0.49,1.13-1.01,2.26-1.54,3.38
			C43.33,23.82,43.13,23.94,43.07,24.01z"/>
	</g>
</g>
</svg>
