<svg width="94" height="94" viewBox="0 0 94 94" fill="none" xmlns="http://www.w3.org/2000/svg">
<line x1="0.851064" y1="-0.851064" x2="8.76489" y2="-0.851064" transform="matrix(0.0424473 0.999099 -0.999012 0.0444502 42.1021 30.5435)" stroke="white" stroke-width="1.70213" stroke-linecap="square"/>
<line x1="0.851064" y1="-0.851064" x2="9.83491" y2="-0.851064" transform="matrix(0.993101 0.117266 -0.11204 0.993704 23.7349 51.0107)" stroke="white" stroke-width="1.70213" stroke-linecap="square"/>
<line x1="0.851064" y1="-0.851064" x2="16.5717" y2="-0.851064" transform="matrix(-0.890228 0.455514 -0.438989 -0.898492 71.8979 38.8975)" stroke="white" stroke-width="1.70213" stroke-linecap="square"/>
<line x1="0.851064" y1="-0.851064" x2="11.4312" y2="-0.851064" transform="matrix(-0.717861 -0.696186 0.679448 -0.733724 63.9805 67.9154)" stroke="white" stroke-width="1.70213" stroke-linecap="square"/>
<line x1="0.851064" y1="-0.851064" x2="7.08693" y2="-0.851064" transform="matrix(0.617027 -0.786942 0.772831 0.634611 34.7554 68.1177)" stroke="white" stroke-width="1.70213" stroke-linecap="square"/>
<path d="M49.4143 21.9806C49.4143 26.489 45.848 30.11 41.4899 30.11C37.1317 30.11 33.5654 26.489 33.5654 21.9806C33.5654 17.4721 37.1317 13.8511 41.4899 13.8511C45.848 13.8511 49.4143 17.4721 49.4143 21.9806Z" stroke="white" stroke-width="1.70213"/>
<path d="M23.7 48.7132C23.7 53.2216 20.1336 56.8427 15.7755 56.8427C11.4174 56.8427 7.85106 53.2216 7.85106 48.7132C7.85106 44.2048 11.4174 40.5837 15.7755 40.5837C20.1336 40.5837 23.7 44.2048 23.7 48.7132Z" stroke="white" stroke-width="1.70213"/>
<path d="M86.1488 36.6C86.1488 40.647 82.948 43.8941 79.0407 43.8941C75.1334 43.8941 71.9326 40.647 71.9326 36.6C71.9326 32.5529 75.1334 29.3059 79.0407 29.3059C82.948 29.3059 86.1488 32.5529 86.1488 36.6Z" stroke="white" stroke-width="1.70213"/>
<path d="M73.904 73.3576C73.904 76.7126 71.2514 79.3986 68.0203 79.3986C64.7893 79.3986 62.1367 76.7126 62.1367 73.3576C62.1367 70.0026 64.7893 67.3166 68.0203 67.3166C71.2514 67.3166 73.904 70.0026 73.904 73.3576Z" stroke="white" stroke-width="1.70213"/>
<path d="M36.353 73.3576C36.353 77.1739 33.3349 80.234 29.6531 80.234C25.9712 80.234 22.9531 77.1739 22.9531 73.3576C22.9531 69.5412 25.9712 66.4812 29.6531 66.4812C33.3349 66.4812 36.353 69.5412 36.353 73.3576Z" stroke="white" stroke-width="1.70213"/>
<path d="M57.1695 52.0548C57.1695 58.4088 52.1413 63.5259 45.9798 63.5259C39.8183 63.5259 34.79 58.4088 34.79 52.0548C34.79 45.7009 39.8183 40.5837 45.9798 40.5837C52.1413 40.5837 57.1695 45.7009 57.1695 52.0548Z" fill="url(#paint0_linear_8_208)" stroke="white" stroke-width="1.70213"/>
<defs>
<linearGradient id="paint0_linear_8_208" x1="45.9798" y1="39.7327" x2="45.9798" y2="64.377" gradientUnits="userSpaceOnUse">
<stop stop-color="#C8C8C8" stop-opacity="0.37"/>
<stop offset="1" stop-color="#929191" stop-opacity="0.27"/>
</linearGradient>
</defs>
</svg>
