<svg width="94" height="94" viewBox="0 0 94 94" fill="none" xmlns="http://www.w3.org/2000/svg">
<path d="M41.2003 34.554L39.2684 34.3052C39.0625 32.2679 39.4065 30.1369 39.7215 28.1855C39.8037 27.6763 39.884 27.1793 39.9519 26.6994C40.2947 24.2792 40.3578 22.1986 39.3618 20.3818L39.3609 20.3803C38.0296 17.9415 34.861 16.7055 31.8721 17.0587L31.8709 17.0588C25.8327 17.7648 20.5137 22.993 19.1319 28.8972L19.1308 28.902L19.1308 28.902C19.0315 29.3169 18.9795 29.7171 19.0075 30.0479C19.035 30.3718 19.1289 30.5378 19.2348 30.6318L19.242 30.6382L19.242 30.6382C19.3286 30.7165 19.4813 30.7826 19.7277 30.7695C19.9784 30.7562 20.2519 30.6608 20.4662 30.512C20.9248 30.1936 21.2678 29.7366 21.716 29.1395C21.8099 29.0144 21.9084 28.8832 22.0135 28.7457C24.0008 26.1337 26.7279 24.1833 29.8386 23.1497C30.2881 22.999 30.8626 22.8666 31.4398 22.8934C32.0264 22.9206 32.7351 23.1243 33.2173 23.7744L33.2497 23.8181L33.2772 23.865C33.5818 24.3854 33.7279 24.9831 33.6985 25.5846C33.861 31.9547 32.9126 38.2206 31.8497 44.4045C31.7068 45.2356 31.5619 46.0649 31.4173 46.8928C30.4788 52.2657 29.5506 57.5798 29.243 62.9555L29.243 62.956C29.1597 64.4009 29.1511 65.7027 29.5696 66.8524C29.9828 67.9876 30.8827 68.8192 31.8186 68.92C32.7629 69.0216 33.7826 68.4245 34.4433 67.4383C35.1114 66.441 35.4211 65.2033 35.7197 63.7999C36.1705 61.6707 36.5601 59.5219 36.951 57.3565L36.9815 57.1875C37.3615 55.0823 37.7443 52.9615 38.1841 50.8543C39.5309 44.3563 41.4539 37.8045 44.8911 32.005C46.6114 29.097 48.8363 26.2107 51.9216 24.4401L41.2003 34.554ZM41.2003 34.554C42.7408 30.422 44.5724 26.4403 47.3357 23.167C50.0914 19.9027 53.8815 17.4907 57.9702 17.1392C62.0608 16.7875 66.3626 18.846 68.0489 22.4126C69.019 24.4802 69.1044 26.7685 68.7201 29.1993C68.3554 31.5063 67.5849 33.8501 66.8215 36.1719C66.7762 36.3097 66.731 36.4475 66.6858 36.5851C66.6855 36.586 66.6852 36.587 66.6849 36.588L65.4626 40.2299L65.4572 40.2461L65.4523 40.2626L63.7534 45.9666L41.2003 34.554ZM59.7325 24.3416L59.7334 24.3423C61.1361 25.4944 61.6341 27.1348 61.7071 28.7374C61.7797 30.3311 61.4411 32.0047 61.0483 33.4185C60.4003 35.7589 59.6892 38.0613 58.9831 40.3475C57.1562 46.2633 55.3627 52.0705 54.7815 58.1457C54.2199 64.1291 55.2087 69.3649 55.892 71.0503C58.1489 76.616 66.1222 79.2319 72.3681 74.6641C70.1292 74.963 68.1718 74.5474 66.5503 73.7519C64.0642 72.5324 62.4302 70.4514 61.7753 68.8766L61.7479 68.8106L61.7301 68.7414C60.4813 63.88 61.0002 59.8222 61.2226 58.0835C61.2294 58.03 61.236 57.9788 61.2422 57.9297C61.2423 57.9287 61.2425 57.9276 61.2426 57.9265L62.2347 58.0522L59.7325 24.3416ZM59.7325 24.3416C58.5646 23.3845 57.1322 23.1037 55.7675 23.2053M59.7325 24.3416L55.7675 23.2053M55.7675 23.2053C54.4084 23.3065 53.0543 23.7878 51.9217 24.44L55.7675 23.2053Z" fill="url(#paint0_linear_8_120)" stroke="white" stroke-width="2"/>
<path fill-rule="evenodd" clip-rule="evenodd" d="M72.0211 52.5198L44.8201 64.6305L43.4438 61.5394L70.6449 49.4287L72.0211 52.5198Z" fill="white"/>
<path fill-rule="evenodd" clip-rule="evenodd" d="M74.0914 61.5853L46.8904 73.696L45.5142 70.605L72.7152 58.4943L74.0914 61.5853Z" fill="white"/>
<defs>
<linearGradient id="paint0_linear_8_120" x1="47" y1="16" x2="47" y2="78" gradientUnits="userSpaceOnUse">
<stop stop-color="#C8C8C8" stop-opacity="0.37"/>
<stop offset="1" stop-color="#929191" stop-opacity="0.27"/>
</linearGradient>
</defs>
</svg>
