<svg width="94" height="94" viewBox="0 0 94 94" fill="none" xmlns="http://www.w3.org/2000/svg">
<path d="M28.4384 56.2109V57.2109H29.4384H62.2484H63.2484V56.2109V53.5809V52.5809H62.2484H33.0619V40.1073L62.2484 40.1054H62.2485H72.7491C75.0941 40.1054 76.9994 42.0118 76.9994 44.3685V66.7366C76.9994 69.0932 75.0941 70.9996 72.7491 70.9996H72.749L67.5036 71H67.5035L25.5009 70.9991H20.2503C17.9052 70.9991 16 69.0928 16 66.7362V27.2631C16 24.9064 17.9052 23 20.2503 23H25.4967H29.4384H77V35.4734H29.4384H28.4384V36.4734V56.2109Z" fill="url(#paint0_linear_8_289)" stroke="white" stroke-width="2"/>
<defs>
<linearGradient id="paint0_linear_8_289" x1="46.5" y1="22" x2="46.5" y2="72" gradientUnits="userSpaceOnUse">
<stop stop-color="#C8C8C8" stop-opacity="0.37"/>
<stop offset="1" stop-color="#929191" stop-opacity="0.27"/>
</linearGradient>
</defs>
</svg>
