<svg width="91" height="91" viewBox="0 0 91 91" fill="none" xmlns="http://www.w3.org/2000/svg">
<path d="M45.0595 90.1189C69.9451 90.1189 90.1189 69.9451 90.1189 45.0595C90.1189 20.1738 69.9451 0 45.0595 0C20.1738 0 0 20.1738 0 45.0595C0 69.9451 20.1738 90.1189 45.0595 90.1189Z" fill="url(#paint0_radial_2_1424)"/>
<path d="M59.5021 27.9582C60.9585 31.0672 59.6881 34.7055 58.618 37.9723L57.7973 40.4223L56.6568 44.2583C56.2766 45.4594 55.4127 48.7246 54.9979 52.1769C54.8597 53.2698 54.4796 55.9532 55.309 59.188C56.0693 61.0196 59.2488 64.2682 64.2253 61.8836C59.6635 67.6895 52.095 66.0246 50.1251 61.1578C49.6166 59.9017 48.9507 56.2723 49.3344 52.1769C49.8818 46.4424 52.024 41.0005 53.5568 35.4548C54.0692 33.6076 54.379 31.2789 52.8958 30.0585C51.6646 29.0478 49.7971 29.3923 48.4193 30.1872C46.4981 31.2914 45.0789 33.1136 43.9489 35.0272C41.6993 38.8295 40.4289 43.1465 39.5323 47.4801C38.9312 50.365 38.4891 53.2935 37.8797 56.1764C37.6814 57.1103 37.4542 58.063 36.9253 58.8537C36.3965 59.6445 35.4999 60.2464 34.5373 60.1426C33.5746 60.0388 32.8041 59.2315 32.4715 58.3162C32.1389 57.4009 32.1575 56.4005 32.2133 55.4312C32.6946 47.0027 35.4194 38.7942 35.1983 30.3636C35.2166 30.0821 35.1504 29.8016 35.0083 29.5583C34.684 29.1204 34.0126 29.2014 33.4941 29.3757C31.5365 30.0271 29.8201 31.2568 28.5693 32.904C28.2078 33.3772 27.8648 33.8982 27.3815 34.2344C26.8981 34.5706 26.1709 34.6661 25.7288 34.2655C25.2454 33.8359 25.3033 33.068 25.452 32.4453C26.4353 28.2363 30.2074 24.4921 34.5662 23.9815C36.758 23.7221 39.1935 24.6125 40.2533 26.5572C41.815 29.411 39.9434 32.9269 40.2698 36.1625C41.311 33.3648 42.5711 30.6044 44.4984 28.3172C46.4258 26.03 49.1175 24.2887 52.0819 24.0334C55.0463 23.7781 58.2296 25.26 59.5021 27.9582Z" fill="white"/>
<path fill-rule="evenodd" clip-rule="evenodd" d="M61.576 48.5742L43.4639 56.6383L42.5475 54.5801L60.6596 46.516L61.576 48.5742Z" fill="white"/>
<path fill-rule="evenodd" clip-rule="evenodd" d="M62.9541 54.6114L44.842 62.6754L43.9257 60.6172L62.0378 52.5532L62.9541 54.6114Z" fill="white"/>
<defs>
<radialGradient id="paint0_radial_2_1424" cx="0" cy="0" r="1" gradientUnits="userSpaceOnUse" gradientTransform="translate(31.6543 19.6009) rotate(52.5122) scale(73.1132)">
<stop stop-color="#49B9FF"/>
<stop offset="1" stop-color="#3F5DFF"/>
</radialGradient>
</defs>
</svg>
