<?xml version="1.0" encoding="UTF-8"?>
<svg width="507.910001px" height="446.905px" viewBox="0 0 507.910001 446.905" version="1.1" xmlns="http://www.w3.org/2000/svg" xmlns:xlink="http://www.w3.org/1999/xlink">
    <title>polygon-matic-icon</title>
    <g id="Page-1" stroke="none" stroke-width="1" fill="none" fill-rule="evenodd">
        <g id="polygon-matic-icon" fill="#FFFFFF" fill-rule="nonzero">
            <path d="M384.58,136.5725 C375.3,131.2725 363.36,131.2725 352.75,136.5725 L278.49,180.3425 L228.1,208.1825 L155.16,251.9825 C145.88,257.2825 133.94,257.2825 123.33,251.9825 L66.33,217.5025 C56.467123,211.692209 50.4120232,201.099588 50.41,189.6525 L50.41,123.3125 C50.41,112.7025 55.72,102.0925 66.33,95.4625 L123.33,62.3125 C132.61,57.0025 144.55,57.0025 155.16,62.3125 L212.16,96.7925 C222.025859,102.599848 228.082026,113.194336 228.08,124.6425 L228.08,168.4025 L278.47,139.2225 L278.47,94.1425 C278.47,83.5325 273.17,72.9225 262.56,66.2925 L156.48,3.9825 C147.2,-1.3275 135.27,-1.3275 124.66,3.9825 L15.91,67.6125 C5.3,72.9225 0,83.5325 0,94.1425 L0,218.7925 C0,229.4025 5.3,239.9825 15.91,246.6425 L123.33,308.9825 C132.61,314.2925 144.55,314.2925 155.16,308.9825 L228.1,266.5425 L278.49,237.3725 L351.43,194.9325 C360.71,189.6325 372.65,189.6325 383.26,194.9325 L440.26,228.0925 C450.140522,233.906048 456.202097,244.518561 456.19,255.9825 L456.19,322.2825 C456.19,332.8925 450.89,343.5025 440.28,350.1325 L384.58,383.2925 C375.3,388.5925 363.36,388.5925 352.75,383.2925 L295.75,350.1325 C285.889476,344.321174 279.837913,333.728086 279.84,322.2825 L279.84,279.8025 L229.42,308.9825 L229.42,352.7425 C229.42,363.3525 234.73,373.9625 245.34,380.5925 L352.75,442.9225 C362.04,448.2325 373.97,448.2325 384.58,442.9225 L492,380.5825 C501.860524,374.771174 507.910001,364.178086 507.910001,352.7325 L507.910001,226.7325 C507.910001,216.1225 502.61,205.5125 492,198.8825 L384.58,136.5725 Z" id="Path"></path>
        </g>
    </g>
</svg>