<svg width="215" height="64" viewBox="0 0 215 64" fill="none" xmlns="http://www.w3.org/2000/svg">
<path d="M32 64C49.6731 64 64 49.6731 64 32C64 14.3269 49.6731 0 32 0C14.3269 0 0 14.3269 0 32C0 49.6731 14.3269 64 32 64Z" fill="url(#paint0_radial_2_786)"/>
<path d="M42.2568 19.8554C43.2911 22.0633 42.3888 24.6472 41.6289 26.9672L41.046 28.707L40.2361 31.4313C39.9661 32.2843 39.3526 34.6031 39.058 37.0549C38.9599 37.831 38.6899 39.7367 39.2789 42.0339C39.8189 43.3347 42.0769 45.6417 45.6111 43.9483C42.3714 48.0715 36.9964 46.8891 35.5975 43.4329C35.2364 42.5408 34.7635 39.9633 35.036 37.0549C35.4247 32.9823 36.9461 29.1176 38.0346 25.1793C38.3984 23.8674 38.6185 22.2137 37.5651 21.347C36.6908 20.6292 35.3646 20.8739 34.386 21.4384C33.0217 22.2225 32.0138 23.5166 31.2113 24.8756C29.6137 27.5759 28.7115 30.6417 28.0748 33.7193C27.6479 35.7681 27.3339 37.8478 26.9011 39.8952C26.7603 40.5584 26.5989 41.235 26.2234 41.7965C25.8478 42.3581 25.2111 42.7856 24.5274 42.7119C23.8438 42.6382 23.2966 42.0648 23.0604 41.4148C22.8242 40.7648 22.8374 40.0543 22.877 39.366C23.2188 33.3803 25.1539 27.5508 24.9969 21.5637C25.0099 21.3638 24.9629 21.1645 24.8619 20.9918C24.6316 20.6808 24.1548 20.7383 23.7866 20.8621C22.3963 21.3247 21.1774 22.198 20.2891 23.3678C20.0324 23.7038 19.7889 24.0738 19.4456 24.3126C19.1023 24.5514 18.5859 24.6192 18.2719 24.3347C17.9286 24.0296 17.9697 23.4842 18.0753 23.042C18.7737 20.0529 21.4525 17.3939 24.548 17.0313C26.1045 16.847 27.8342 17.4794 28.5868 18.8604C29.6959 20.8871 28.3667 23.384 28.5985 25.6819C29.3379 23.695 30.2328 21.7346 31.6016 20.1104C32.9703 18.4861 34.8819 17.2494 36.9871 17.0681C39.0924 16.8868 41.3531 17.9392 42.2568 19.8554Z" fill="white"/>
<path fill-rule="evenodd" clip-rule="evenodd" d="M43.7296 34.4963L30.8669 40.2231L30.2161 38.7615L43.0788 33.0346L43.7296 34.4963Z" fill="white"/>
<path fill-rule="evenodd" clip-rule="evenodd" d="M44.7083 38.7832L31.8456 44.51L31.1948 43.0483L44.0576 37.3215L44.7083 38.7832Z" fill="white"/>
<path d="M84.6348 30.4705V42.4126H80V21.5286H83.6739L92.9717 33.8237V21.5286H97.6065V42.4126H93.8196L84.6348 30.4705Z" fill="white"/>
<path d="M110.798 42.5891C109.291 42.5891 107.925 42.295 106.701 41.7067C105.495 41.0988 104.449 40.2948 103.564 39.2947C102.697 38.275 102.028 37.1377 101.557 35.8827C101.086 34.6081 100.851 33.2942 100.851 31.9412C100.851 30.5489 101.096 29.2253 101.585 27.9703C102.094 26.7153 102.791 25.5975 103.677 24.6171C104.581 23.617 105.646 22.8326 106.87 22.2639C108.095 21.6952 109.432 21.4109 110.883 21.4109C112.372 21.4109 113.719 21.7149 114.924 22.3227C116.149 22.911 117.195 23.715 118.061 24.7347C118.947 25.7544 119.625 26.9016 120.096 28.1762C120.567 29.4312 120.803 30.7156 120.803 32.0294C120.803 33.4217 120.558 34.7453 120.068 36.0003C119.578 37.2553 118.881 38.3829 117.977 39.3829C117.072 40.3634 116.008 41.1478 114.783 41.7361C113.577 42.3048 112.249 42.5891 110.798 42.5891ZM105.57 32C105.57 32.804 105.683 33.5884 105.909 34.3531C106.135 35.0983 106.465 35.765 106.898 36.3533C107.351 36.9416 107.906 37.4122 108.566 37.7652C109.225 38.1181 109.979 38.2946 110.827 38.2946C111.712 38.2946 112.485 38.1181 113.144 37.7652C113.803 37.3926 114.35 36.9024 114.783 36.2945C115.217 35.6866 115.537 35.01 115.744 34.2649C115.97 33.5001 116.083 32.7256 116.083 31.9412C116.083 31.1372 115.97 30.3626 115.744 29.6175C115.518 28.8723 115.179 28.2056 114.727 27.6173C114.274 27.0094 113.719 26.5388 113.059 26.2054C112.4 25.8721 111.656 25.7054 110.827 25.7054C109.941 25.7054 109.169 25.8819 108.509 26.2348C107.869 26.5878 107.322 27.0682 106.87 27.6761C106.437 28.2644 106.107 28.9409 105.881 29.7057C105.674 30.4509 105.57 31.2156 105.57 32Z" fill="white"/>
<path d="M124.046 42.4126V21.5286H133.09C134.032 21.5286 134.898 21.7345 135.69 22.1463C136.5 22.5385 137.197 23.0777 137.781 23.764C138.365 24.4308 138.817 25.1857 139.137 26.0289C139.477 26.8721 139.646 27.7251 139.646 28.588C139.646 29.4508 139.514 30.2744 139.25 31.0587C138.987 31.8235 138.61 32.5197 138.12 33.1472C137.63 33.755 137.046 34.2551 136.368 34.6473L140.777 42.4126H135.661L131.818 35.6768H128.681V42.4126H124.046ZM128.681 31.4705H132.92C133.297 31.4705 133.627 31.3529 133.909 31.1176C134.211 30.8627 134.456 30.5195 134.644 30.0881C134.832 29.6567 134.927 29.1566 134.927 28.588C134.927 28.0193 134.814 27.5291 134.587 27.1173C134.38 26.6858 134.116 26.3525 133.796 26.1172C133.476 25.8819 133.137 25.7642 132.779 25.7642H128.681V31.4705Z" fill="white"/>
<path d="M149.733 21.5286H154.735L161.631 42.4126H156.883L155.329 37.7358H149.083L147.557 42.4126H142.809L149.733 21.5286ZM154.566 34.412L152.22 26.3819L149.818 34.412H154.566Z" fill="white"/>
<path d="M161.883 31.7941C161.883 30.5195 162.109 29.2743 162.561 28.0585C163.013 26.8231 163.673 25.7054 164.54 24.7053C165.406 23.7052 166.461 22.911 167.705 22.3227C168.948 21.7149 170.361 21.4109 171.944 21.4109C173.828 21.4109 175.458 21.8325 176.833 22.6757C178.227 23.5189 179.263 24.6171 179.942 25.9701L176.381 28.5585C176.079 27.8134 175.674 27.2349 175.166 26.8231C174.676 26.4113 174.129 26.127 173.527 25.9701C172.942 25.7936 172.377 25.7054 171.831 25.7054C170.945 25.7054 170.173 25.8917 169.513 26.2642C168.854 26.6172 168.308 27.0976 167.874 27.7055C167.441 28.3134 167.121 28.99 166.913 29.7351C166.706 30.4803 166.603 31.2254 166.603 31.9706C166.603 32.7942 166.725 33.5884 166.97 34.3531C167.215 35.1179 167.563 35.7944 168.016 36.3827C168.487 36.971 169.052 37.4416 169.711 37.7946C170.371 38.1279 171.096 38.2946 171.887 38.2946C172.453 38.2946 173.027 38.1966 173.611 38.0005C174.195 37.8044 174.732 37.5004 175.222 37.0886C175.731 36.6572 176.117 36.0984 176.381 35.412L180.168 37.7358C179.772 38.7554 179.122 39.6281 178.218 40.3536C177.313 41.0792 176.287 41.638 175.137 42.0302C174.007 42.4028 172.886 42.5891 171.774 42.5891C170.324 42.5891 168.986 42.2851 167.761 41.6773C166.556 41.0498 165.51 40.2262 164.624 39.2065C163.758 38.1672 163.079 37.0102 162.59 35.7356C162.119 34.4414 161.883 33.1275 161.883 31.7941Z" fill="white"/>
<path d="M183.064 42.4126V21.5286H187.699V38.177H197.42V42.4126H183.064Z" fill="white"/>
<path d="M214.545 38.177V42.4126H200.443V21.5286H214.291V25.7642H205.078V29.8234H212.991V33.7354H205.078V38.177H214.545Z" fill="white"/>
<defs>
<radialGradient id="paint0_radial_2_786" cx="0" cy="0" r="1" gradientUnits="userSpaceOnUse" gradientTransform="translate(22.48 13.92) rotate(52.5122) scale(51.923)">
<stop stop-color="#49B9FF"/>
<stop offset="1" stop-color="#3F5DFF"/>
</radialGradient>
</defs>
</svg>
