<?xml version="1.0" encoding="UTF-8"?>
<svg width="27.6111172px" height="29.5680047px" viewBox="0 0 27.6111172 29.5680047" version="1.1" xmlns="http://www.w3.org/2000/svg" xmlns:xlink="http://www.w3.org/1999/xlink">
    <title>Group</title>
    <g id="Page-1" stroke="none" stroke-width="1" fill="none" fill-rule="evenodd">
        <g id="NavbarLogo" transform="translate(-18, -17)" fill="#FFFFFF">
            <g id="Group" transform="translate(18, 17)">
                <path d="M24.2568172,2.85539096 C25.2911172,5.06329096 24.3888172,7.64719096 23.6289172,9.96719096 L23.0460172,11.706991 L22.2361172,14.431291 C21.9661172,15.284291 21.3526172,17.603091 21.0580172,20.054891 C20.9599172,20.830991 20.6899172,22.736691 21.2789172,25.033891 C21.8189172,26.334691 24.0769172,28.641691 27.6111172,26.948291 C24.3714172,31.071491 18.9964172,29.889091 17.5975172,26.432891 C17.2364172,25.540791 16.7635172,22.963291 17.0360172,20.054891 C17.4247172,15.982291 18.9461172,12.117591 20.0346172,8.17929096 C20.3984172,6.86739096 20.6185172,5.21369096 19.5651172,4.34699096 C18.6908172,3.62919096 17.3646172,3.87389096 16.3860172,4.43839096 C15.0217172,5.22249096 14.0138172,6.51659096 13.2113172,7.87559096 C11.6137172,10.575891 10.7115172,13.641691 10.0748172,16.719291 C9.64791718,18.768091 9.33391718,20.847791 8.90111718,22.895191 C8.76031718,23.558391 8.59891718,24.234991 8.22341718,24.796491 C7.84781718,25.358091 7.21111718,25.785591 6.52741718,25.711891 C5.84381718,25.638191 5.29661718,25.064791 5.06041718,24.414791 C4.82421718,23.764791 4.83741718,23.054291 4.87701718,22.365991 C5.21881718,16.380291 7.15391718,10.550791 6.99691718,4.56369096 C7.00991718,4.36379096 6.96291718,4.16449096 6.86191718,3.99179096 C6.63161718,3.68079096 6.15481718,3.73829096 5.78661718,3.86209096 C4.39631718,4.32469096 3.17741718,5.19799096 2.28911718,6.36779096 C2.03241718,6.70379096 1.78891718,7.07379096 1.44561718,7.31259096 C1.10231718,7.55139096 0.585917178,7.61919096 0.271917178,7.33469096 C-0.0713828222,7.02959096 -0.0302828222,6.48419096 0.0753171778,6.04199096 C0.773717178,3.05289096 3.45251718,0.393890963 6.54801718,0.031290963 C8.10451718,-0.153009037 9.83421718,0.479390963 10.5868172,1.86039096 C11.6959172,3.88709096 10.3667172,6.38399096 10.5985172,8.68189096 C11.3379172,6.69499096 12.2328172,4.73459096 13.6016172,3.11039096 C14.9703172,1.48609096 16.8819172,0.249390963 18.9871172,0.068090963 C21.0924172,-0.113209037 23.3531172,0.939190963 24.2568172,2.85539096 Z" id="Path" fill-rule="nonzero"></path>
                <polygon id="Path" points="25.7296172 17.496291 12.8669172 23.223091 12.2161172 21.761491 25.0788172 16.034591"></polygon>
            </g>
        </g>
    </g>
</svg>