<svg width="94" height="94" viewBox="0 0 94 94" fill="none" xmlns="http://www.w3.org/2000/svg">
<path d="M36.8547 56.516C35.4292 57.7032 33.7661 58.653 31.6278 59.1279C30.6774 59.3653 29.9647 59.3653 29.0143 59.3653C22.837 59.3653 17.3725 54.379 16.8974 48.4429C16.4222 45.1187 17.3725 41.7945 19.7484 38.9452C21.4115 37.0457 23.5498 35.621 25.9257 35.1461V39.4201L41.6065 29.21L25.9257 19V23.0365C17.3725 24.2237 10.2449 29.4475 6.91868 37.758C3.11728 47.0183 5.01798 56.9909 12.1456 63.8767C16.6598 68.3881 22.837 71 29.2519 71C35.4292 71 43.5072 68.1507 47.3086 62.6895C50.1596 58.653 55.8617 47.0183 58 42.9817L36.8547 56.516Z" fill="white"/>
<path d="M82.1111 30.1233C77.5716 25.6119 71.3598 23 64.909 23C58.6972 23 50.574 25.8493 46.7513 31.3105C43.8843 35.347 38.1503 46.9817 36 51.0183L56.7858 37.484C58.2193 36.2968 59.8917 35.347 62.042 34.8721C62.9977 34.6347 63.7144 34.6347 64.6701 34.6347C70.8819 34.6347 76.377 39.621 76.8549 45.5571C77.3327 48.8813 76.377 52.2055 73.9879 55.0548C72.3154 56.9543 70.1652 58.379 67.776 58.8539V54.5799L52.0075 64.79L67.776 75V70.9635C76.377 69.7763 83.5446 64.5525 86.8894 56.242C90.951 46.9817 89.0397 37.0091 82.1111 30.1233Z" fill="white"/>
</svg>
