<?xml version="1.0" encoding="UTF-8"?>
<svg width="1504.06873px" height="1441.66px" viewBox="0 0 1504.06873 1441.66" version="1.1" xmlns="http://www.w3.org/2000/svg" xmlns:xlink="http://www.w3.org/1999/xlink">
    <title>usd-coin-usdc-logo</title>
    <g id="Page-1" stroke="none" stroke-width="1" fill="none" fill-rule="evenodd">
        <g id="usd-coin-usdc-logo" fill="#FFFFFF" fill-rule="nonzero">
            <g id="Group-2">
                <path d="M1027.03437,866.66 C1027.03437,720.83 939.534366,670.83 764.534366,650 C639.534366,633.33 614.534366,600 614.534366,541.66 C614.534366,483.32 656.204366,445.83 739.534366,445.83 C814.534366,445.83 856.204366,470.83 877.034366,533.33 C881.204366,545.83 893.704366,554.16 906.204366,554.16 L972.864366,554.16 C989.534366,554.16 1002.03437,541.66 1002.03437,525 L1002.03437,520.83 C985.364366,429.16 910.364366,358.33 814.534366,350 L814.534366,250 C814.534366,233.33 802.034366,220.83 781.204366,216.66 L718.704366,216.66 C702.034366,216.66 689.534366,229.16 685.364366,250 L685.364366,345.83 C560.364366,362.5 481.204366,445.83 481.204366,550 C481.204366,687.5 564.534366,741.66 739.534366,762.5 C856.204366,783.33 893.704366,808.33 893.704366,875 C893.704366,941.67 835.364366,987.5 756.204366,987.5 C647.864366,987.5 610.364366,941.66 597.864366,879.16 C593.704366,862.5 581.204366,854.16 568.704366,854.16 L497.864366,854.16 C481.204366,854.16 468.704366,866.66 468.704366,883.33 L468.704366,887.5 C485.364366,991.66 552.034366,1066.66 689.534366,1087.5 L689.534366,1187.5 C689.534366,1204.16 702.034366,1216.66 722.864366,1220.83 L785.364366,1220.83 C802.034366,1220.83 814.534366,1208.33 818.704366,1187.5 L818.704366,1087.5 C943.704366,1066.66 1027.03437,979.16 1027.03437,866.66 L1027.03437,866.66 Z" id="Path"></path>
                <path d="M539.534366,1304.16 C214.534366,1187.5 47.864366,825 168.704366,504.16 C231.204366,329.16 368.704366,195.83 539.534366,133.33 C556.204366,125 564.534366,112.5 564.534366,91.66 L564.534366,33.33 C564.534366,16.66 556.204366,4.16 539.534366,0 C535.364366,0 527.034366,0 522.864366,4.16 C127.034366,129.16 -89.635634,550 35.364366,945.83 C110.364366,1179.16 289.534366,1358.33 522.864366,1433.33 C539.534366,1441.66 556.204366,1433.33 560.364366,1416.66 C564.534366,1412.5 564.534366,1408.33 564.534366,1400 L564.534366,1341.66 C564.534366,1329.16 552.034366,1312.5 539.534366,1304.16 Z M981.204366,4.16 C964.534366,-4.17 947.864366,4.16 943.704366,20.83 C939.534366,25 939.534366,29.16 939.534366,37.5 L939.534366,95.83 C939.534366,112.5 952.034366,129.16 964.534366,137.5 C1289.53437,254.16 1456.20437,616.66 1335.36437,937.5 C1272.86437,1112.5 1135.36437,1245.83 964.534366,1308.33 C947.864366,1316.66 939.534366,1329.16 939.534366,1350 L939.534366,1408.33 C939.534366,1425 947.864366,1437.5 964.534366,1441.66 C968.704366,1441.66 977.034366,1441.66 981.204366,1437.5 C1377.03437,1312.5 1593.70437,891.66 1468.70437,495.83 C1393.70437,258.33 1210.36437,79.16 981.204366,4.16 Z" id="Shape"></path>
            </g>
        </g>
    </g>
</svg>