<?xml version="1.0" encoding="UTF-8"?>
<svg width="499.999992px" height="413.022858px" viewBox="0 0 499.999992 413.022858" version="1.1" xmlns="http://www.w3.org/2000/svg" xmlns:xlink="http://www.w3.org/1999/xlink">
    <title>usdt</title>
    <g id="Page-1" stroke="none" stroke-width="1" fill="none" fill-rule="evenodd">
        <g id="usdt">
            <circle id="Oval" fill-rule="nonzero" cx="250" cy="166.511425" r="152.960159"></circle>
            <g id="Layer_x0020_1_0" fill="#FFFFFF">
                <path d="M108.878838,0 L396.88427,0 C403.779076,0 410.082878,3.6936378 413.530266,9.65271 L497.449791,155.674622 C501.783653,163.258896 500.503197,172.81311 494.297874,178.969177 L263.322227,407.482407 C255.836464,414.869675 243.819816,414.869675 236.334038,407.482407 L5.70315455,179.264675 C-0.649906649,172.960857 -1.83187155,163.160397 2.84673955,155.526882 L92.5283279,9.2094765 C96.024971,3.4966431 102.230286,0.0492478 108.878837,0.0492478 L108.878837,0 L108.878838,0 Z M359.70163,65.205059 L359.70163,65.205059 L359.70163,106.179836 L277.653564,106.179836 L277.653564,134.596249 C335.274353,137.649654 378.514587,150.109539 378.810058,165.031841 L378.810058,196.206173 C378.465332,211.177731 335.274353,223.637615 277.653564,226.641766 L277.653564,296.377697 L223.184692,296.377697 L223.184692,226.641766 C165.563904,223.58836 122.323692,211.128475 122.028198,196.206173 L122.028198,165.031841 C122.323692,150.109539 165.563904,137.600414 223.184692,134.596249 L223.184692,106.179836 L141.136627,106.179836 L141.136627,65.205059 L359.70163,65.205059 Z M250.419128,205.218655 L250.419128,205.218655 C311.930542,205.218655 363.296783,194.67947 375.904419,180.594387 C365.217468,168.676235 326.655853,159.269772 277.653564,156.659588 L277.653564,186.405712 C268.887329,186.848949 259.776367,187.095196 250.419128,187.095196 C241.061905,187.095196 231.950928,186.848949 223.184692,186.405712 L223.184692,156.659588 C174.182404,159.220516 135.620789,168.626995 124.933861,180.594387 C137.492233,194.67947 188.907715,205.218655 250.419128,205.218655 Z" id="Shape"></path>
            </g>
        </g>
    </g>
</svg>